<svg width="100" height="100" viewBox="0 0 100 100" fill="none" xmlns="http://www.w3.org/2000/svg">
<path d="M100 50C100 77.6142 77.6142 100 50 100C22.3858 100 0 77.6142 0 50C0 40.5792 2.60545 31.7669 7.13507 24.2445L15.3396 32.4495C9.21099 39.6897 9.56064 50.5427 16.3886 57.3706C23.2163 64.1983 34.0687 64.5482 41.309 58.4203L50.0278 67.1397L58.7404 58.4266C65.9806 64.548 76.828 64.196 83.6533 57.3706C90.4789 50.545 90.8307 39.6971 84.7086 32.4569L92.8858 24.2792C97.4026 31.7941 100 40.5937 100 50Z" fill="#06795D"/>
<path fill-rule="evenodd" clip-rule="evenodd" d="M90.0668 20.0842C90.0182 20.0192 89.9694 19.9544 89.9205 19.8896L49.9991 59.811L10.0787 19.8906C19.2057 7.80838 33.691 0 50 0C66.3959 0 80.9486 7.89185 90.0668 20.0842ZM80.8068 19.3913L50.0286 50.1695L19.2334 19.3743C27.0967 11.4721 37.9829 6.58073 50.0117 6.58073C62.049 6.58073 72.9422 11.4791 80.8068 19.3913Z" fill="#06795D"/>
<path d="M62.6633 54.5035L80.7865 36.3793C84.7648 41.4448 84.4198 48.7995 79.7514 53.4679C75.0831 58.1362 67.7288 58.4814 62.6633 54.5035Z" fill="#06795D"/>
<path d="M19.2575 36.3676L37.3911 54.5022C32.3229 58.4885 24.9599 58.1452 20.287 53.4723C15.6139 48.7992 15.2707 41.4358 19.2575 36.3676Z" fill="#06795D"/>
</svg>
